<?xml version="1.0" encoding="utf-8"?>
<!-- Generator: Adobe Illustrator 26.2.1, SVG Export Plug-In . SVG Version: 6.00 Build 0)  -->
<svg version="1.1" id="Layer_1" xmlns="http://www.w3.org/2000/svg" xmlns:xlink="http://www.w3.org/1999/xlink" x="0px" y="0px"
	 viewBox="0 0 513.5 142.2" style="enable-background:new 0 0 513.5 142.2;" xml:space="preserve">
<style type="text/css">
	.st0{fill:#FFFFFF;}
</style>
<g>
	<g>
		<g>
			<path class="st0" d="M232.5,17c2.4,0,5,0,7.8,0.1c2.8,0.1,5.6,0.2,8.4,0.5c2.8,0.3,5.5,0.7,8,1.3c2.5,0.6,4.7,1.5,6.6,2.6
				c2,1.2,3.8,2.5,5.6,4.1c1.8,1.6,3.4,3.4,4.7,5.4c1.4,2,2.5,4.3,3.3,6.7c0.8,2.4,1.2,5.1,1.2,8c0,2.5-0.3,4.8-0.9,6.9
				c-0.6,2.1-1.4,4.1-2.4,6c-1,1.8-2.3,3.5-3.7,5c-1.4,1.5-3,2.8-4.7,3.9c2.4,1.2,4.6,2.6,6.7,4.3c2,1.7,3.8,3.6,5.2,5.8
				c1.4,2.1,2.6,4.5,3.4,7c0.8,2.5,1.2,5.1,1.2,7.8c0,2.7-0.4,5.5-1.1,8.2c-0.7,2.7-1.8,5.3-3.2,7.7c-1.4,2.5-3.2,4.7-5.3,6.8
				c-2.1,2.1-4.6,3.9-7.3,5.4c-2.8,1.5-5.8,2.7-9.2,3.6c-3.4,0.9-7.1,1.3-11.1,1.3h-52.8V17H232.5z M236.4,61.1
				c3.3,0,6.1-0.3,8.4-0.9c2.3-0.6,4.2-1.5,5.7-2.6c1.5-1.1,2.6-2.5,3.3-4c0.7-1.6,1-3.3,1-5.3c0-2.6-0.5-4.7-1.5-6.3
				c-1-1.6-2.3-2.9-4-3.8c-1.7-0.9-3.6-1.5-5.9-1.8c-2.2-0.3-4.6-0.5-7.1-0.5h-20.2v25.3H236.4z M243.5,106.4c2.6,0,4.8-0.4,6.8-1.1
				c2-0.7,3.6-1.8,4.9-3.1c1.3-1.3,2.3-2.8,3-4.6c0.7-1.8,1-3.7,1-5.8c0-2.4-0.5-4.4-1.6-6.1c-1.1-1.7-2.5-3.1-4.3-4.1
				c-1.8-1.1-3.8-1.8-6-2.3c-2.2-0.5-4.5-0.7-6.7-0.7h-24.4v28H243.5z"/>
			<path class="st0" d="M314.9,46.5v10.7c1.4-1.9,3.1-3.6,5-5.1c1.9-1.5,4-2.8,6.2-3.9c2.3-1.1,4.7-1.9,7.4-2.4
				c2.7-0.5,5.5-0.8,8.5-0.8V66c-4.9-0.3-9.1,0.2-12.5,1.2c-3.4,1.1-6.1,2.7-8.1,4.8c-2.1,2.1-3.5,4.8-4.4,7.9
				c-0.9,3.1-1.4,6.5-1.4,10.3v35h-21.6V46.5H314.9z"/>
			<path class="st0" d="M353.3,37V17H375v20H353.3z M375,46.5v78.8h-21.8V46.5H375z"/>
			<path class="st0" d="M430.2,46.5V62h-12.4v41.7c0,0.5,0.1,1,0.2,1.6c0.1,0.5,0.4,1,0.7,1.5c0.3,0.5,0.8,0.9,1.4,1.1
				c0.6,0.3,1.3,0.4,2.1,0.4h10.2v16.8h-13.8c-4,0-7.4-0.3-10.3-0.8c-2.8-0.5-5.2-1.5-7-3c-1.8-1.4-3.1-3.4-4-6
				c-0.8-2.5-1.2-5.8-1.2-9.8V62h-10V46.5h10V23.2h21.6v23.3H430.2z"/>
			<path class="st0" d="M441.5,109.1l40.2-46.4h-38.4V46.5h65v16l-40.6,46.6h41.7v16.2h-67.9V109.1z"/>
		</g>
	</g>
	<g>
		<path class="st0" d="M136,39.8c-9.4-10.1-22.8-15.2-39.7-15.2h-8.1c1.5,5.1,2.2,11,2.2,17.9c0,0.7,0,1.3,0,2h5.9
			c11.3,0,19.6,2.9,25.2,8.9c5.7,6.1,8.6,16.1,8.6,29.7c0,13.5-2.9,23.4-8.5,29.4c-5.6,5.9-13.8,8.8-25.2,8.8H83.2
			c-11.4,0-19.6-2.9-25.2-8.8c-5.5-5.9-8.4-15.5-8.5-28.6h-8.7c-4,0-7.7-0.4-11.1-1.1c0,0.1,0,0.3,0,0.4c0,18.8,4.7,33.2,13.9,43
			c9.4,9.9,22.7,15,39.6,15h13.2c16.9,0,30.2-5,39.6-15c9.3-9.8,13.9-24.3,13.9-43C150,64.3,145.3,49.7,136,39.8z"/>
		<path class="st0" d="M90.5,44.5c-0.3,12.6-3.1,22-8.8,28.5c-6.2,7.2-15.5,10.8-27.8,10.8h-4.4c0-0.2,0-0.5,0-0.7
			c0-7.5,0.9-13.9,2.6-19.1c1.4-4.3,3.4-7.8,6-10.6c3.2-3.5,7.4-5.9,12.5-7.3c3.7-1,7.9-1.6,12.7-1.6H90.5z"/>
		<path class="st0" d="M88.3,24.6h-5.1c-5.6,0-10.8,0.6-15.6,1.7c-9.7,2.2-17.8,6.8-24.1,13.5c-5.6,6-9.4,13.6-11.7,22.8
			c-1.5,6-2.2,12.7-2.2,20c-7.1-1.6-12.7-4.8-16.8-9.6c-5.9-6.8-8.7-16.7-8.7-30.4C4.1,29,7,18.9,12.8,12.1
			C19,4.8,28.4,1.1,40.8,1.1h13.2c12.4,0,21.7,3.7,27.9,11C84.7,15.5,86.9,19.7,88.3,24.6z"/>
	</g>
</g>
</svg>
