<?xml version="1.0" encoding="utf-8"?>
<!-- Generator: Adobe Illustrator 27.1.1, SVG Export Plug-In . SVG Version: 6.00 Build 0)  -->
<svg version="1.1" id="Layer_1" xmlns="http://www.w3.org/2000/svg" xmlns:xlink="http://www.w3.org/1999/xlink" x="0px" y="0px"
	 viewBox="0 0 145.8 140" style="enable-background:new 0 0 145.8 140;" xml:space="preserve">
<style type="text/css">
	.st0{fill:#1A56A5;}
	.st1{fill:#78CDF8;}
</style>
<g>
	<g>
		<path class="st0" d="M132,38.7c-9.4-10.1-22.8-15.2-39.7-15.2h-8.1c1.5,5.1,2.2,11,2.2,17.9c0,0.7,0,1.3,0,2h5.9
			c11.3,0,19.6,2.9,25.2,8.9c5.7,6.1,8.6,16.1,8.6,29.7c0,13.5-2.9,23.4-8.5,29.4c-5.6,5.9-13.8,8.8-25.2,8.8H79.1
			c-11.4,0-19.6-2.9-25.2-8.8c-5.5-5.9-8.4-15.5-8.5-28.6h-8.7c-4,0-7.7-0.4-11.1-1.1c0,0.1,0,0.3,0,0.4c0,18.8,4.7,33.2,13.9,43
			c9.4,9.9,22.7,15,39.6,15h13.2c16.9,0,30.2-5,39.6-15c9.3-9.8,13.9-24.3,13.9-43C145.9,63.1,141.2,48.6,132,38.7z"/>
		<path class="st1" d="M86.4,43.4c-0.3,12.6-3.1,22-8.8,28.5C71.4,79,62.1,82.7,49.8,82.7h-4.4c0-0.2,0-0.5,0-0.7
			c0-7.5,0.9-13.9,2.6-19.1c1.4-4.3,3.4-7.8,6-10.6c3.2-3.5,7.4-5.9,12.5-7.3c3.7-1,7.9-1.6,12.7-1.6C79.2,43.4,86.4,43.4,86.4,43.4
			z"/>
		<path class="st1" d="M84.2,23.5h-5.1c-5.6,0-10.8,0.6-15.6,1.7c-9.7,2.2-17.8,6.8-24.1,13.5c-5.6,6-9.4,13.6-11.7,22.8
			c-1.5,6-2.2,12.7-2.2,20c-7.1-1.6-12.7-4.8-16.8-9.6C2.8,65.1,0,55.2,0,41.6C0,27.9,2.9,17.8,8.8,11C15,3.7,24.3,0,36.7,0h13.2
			c12.4,0,21.7,3.7,27.9,11C80.6,14.4,82.8,18.5,84.2,23.5z"/>
	</g>
</g>
</svg>
