<svg width="18" height="18" viewBox="0 0 18 18" fill="none" xmlns="http://www.w3.org/2000/svg">
<path d="M2.11185 17.0845C1.64049 17.0845 1.1966 16.3971 1.1966 15.8642C1.1966 15.6958 1.05992 15.5591 0.891511 15.5591C0.723104 15.5591 0.586426 15.6958 0.586426 15.8642C0.586426 16.7105 1.25273 17.6947 2.11185 17.6947C2.28026 17.6947 2.41693 17.558 2.41693 17.3896C2.41693 17.2212 2.28026 17.0845 2.11185 17.0845Z" fill="#1A56A5"/>
<path d="M15.7094 0.61017C16.1664 0.61017 16.7558 1.28624 16.7558 2.00441C16.7558 2.17281 16.8925 2.30949 17.0609 2.30949C17.2293 2.30949 17.366 2.17281 17.366 2.00441C17.366 0.993051 16.5453 0 15.7094 0C15.541 0 15.4043 0.136678 15.4043 0.305085C15.4043 0.473492 15.541 0.61017 15.7094 0.61017Z" fill="#1A56A5"/>
<path d="M17.6713 13.7289C17.6713 13.5605 17.5346 13.4238 17.3662 13.4238C17.1978 13.4238 17.0611 13.5605 17.0611 13.7289C17.0611 15.3254 15.7523 16.7798 14.3153 16.7798C14.1469 16.7798 14.0103 16.9164 14.0103 17.0848C14.0103 17.2533 14.1469 17.3899 14.3153 17.3899C16.1028 17.3899 17.6713 15.6793 17.6713 13.7289Z" fill="#1A56A5"/>
<path d="M17.6714 16.1694C17.503 16.1694 17.3663 16.3061 17.3663 16.4745C17.3663 16.8275 16.9475 17.3898 16.4511 17.3898C16.2827 17.3898 16.146 17.5265 16.146 17.6949C16.146 17.8633 16.2827 17.9999 16.4511 17.9999C17.2727 17.9999 17.9765 17.161 17.9765 16.4745C17.9765 16.3061 17.8398 16.1694 17.6714 16.1694Z" fill="#1A56A5"/>
<path d="M11.6452 17.4326C12.1391 17.248 12.6202 17.0183 13.0843 16.7501C13.1224 16.7373 13.1578 16.7172 13.1892 16.6891C13.8912 16.2718 14.5514 15.7635 15.1454 15.1695C16.0955 14.2195 16.8081 13.1306 17.2807 11.9887C17.2865 11.9768 17.2917 11.9658 17.296 11.9536C17.5733 11.2757 17.7655 10.5792 17.872 9.88207C17.875 9.86285 17.8802 9.84455 17.8796 9.82533C17.9818 9.12333 17.9964 8.42194 17.9232 7.73733C17.9244 7.71414 17.9202 7.69218 17.9159 7.66929C17.731 6.0734 17.0653 4.57757 15.9002 3.41245C15.6903 3.20224 15.463 3.00638 15.2107 2.81357C15.0261 2.57133 14.8257 2.33824 14.6057 2.11828C13.2679 0.779565 11.4258 0.0424805 9.41898 0.0424805C7.04268 0.0424805 4.64807 1.07397 2.84929 2.87275C-0.600304 6.32265 -0.938948 11.5967 2.0942 14.6301C2.30776 14.8437 2.53841 15.0362 2.77607 15.2183C2.97315 15.4776 3.17359 15.7095 3.38837 15.9243C4.72709 17.2627 6.56919 17.9998 8.57604 17.9998C9.60417 17.9998 10.6357 17.8057 11.6208 17.4412C11.6293 17.4381 11.6373 17.4363 11.6452 17.4326ZM9.53736 17.3274L8.77831 16.5683C9.2399 16.4856 9.69692 16.3654 10.1457 16.2095L10.9575 17.0214C10.4907 17.1654 10.0157 17.2679 9.53736 17.3274ZM17.3411 9.16696L16.601 8.42682C16.6086 8.37007 16.6162 8.31363 16.623 8.25689C16.6394 8.11075 16.6522 7.96462 16.6611 7.81879C16.6663 7.73489 16.6687 7.6516 16.6712 7.56801C16.6739 7.4835 16.6751 7.39929 16.6754 7.31509C16.6754 7.2797 16.6776 7.24401 16.6773 7.20862L17.3259 7.85723C17.3686 8.28801 17.3735 8.72611 17.3411 9.16696ZM16.8872 11.3016L16.0701 10.4846C16.1125 10.3748 16.1534 10.2643 16.1916 10.1536C16.2083 10.1051 16.2236 10.0563 16.2395 10.0075C16.2816 9.8775 16.3206 9.74723 16.3569 9.61665C16.3706 9.56692 16.3856 9.51719 16.3984 9.46716C16.425 9.36465 16.4481 9.26184 16.4707 9.15902L17.2444 9.93272C17.1654 10.3919 17.0455 10.8498 16.8872 11.3016ZM15.4441 11.7989C15.5399 11.6323 15.629 11.4633 15.7138 11.2934C15.7318 11.2571 15.7492 11.2208 15.7666 11.1845C15.7818 11.1531 15.7974 11.1216 15.8123 11.0902L16.6434 11.9213C16.5156 12.2126 16.3697 12.4991 16.2083 12.7807L15.3626 11.935C15.3822 11.9023 15.4023 11.87 15.4212 11.8371C15.4285 11.8242 15.4368 11.8117 15.4441 11.7989ZM14.7272 12.8753C14.8312 12.7392 14.9306 12.6013 15.0264 12.4616L15.8773 13.3124C15.7074 13.5663 15.5253 13.8149 15.3266 14.0562L14.4691 13.1987C14.5514 13.0998 14.6311 12.9994 14.7088 12.8981C14.715 12.8902 14.7214 12.8829 14.7272 12.8753ZM13.03 16.0741L12.1766 15.2208C12.436 15.0545 12.6889 14.8754 12.9342 14.6838L13.7942 15.5438C13.5468 15.7339 13.292 15.9112 13.03 16.0741ZM10.7693 15.9703C11.0643 15.8437 11.3541 15.7013 11.6376 15.5444L12.4808 16.3877C12.1916 16.5409 11.8957 16.6769 11.5952 16.7962L10.7693 15.9703ZM14.2671 15.1539L13.4052 14.2921C13.5572 14.1575 13.707 14.0199 13.8513 13.8753C13.9236 13.803 13.9925 13.7286 14.0624 13.6548L14.9218 14.5142C14.8519 14.5886 14.7873 14.6658 14.7143 14.7384C14.5697 14.8827 14.4196 15.02 14.2671 15.1539ZM16.2901 4.85519C16.6806 5.45377 16.957 6.11245 17.134 6.80255L16.6123 6.28085C16.6062 6.23265 16.5979 6.18506 16.5909 6.13746C16.5793 6.05814 16.568 5.97882 16.554 5.90011C16.5284 5.75672 16.4988 5.61455 16.4652 5.4736C16.45 5.41045 16.4326 5.34851 16.4158 5.28567C16.3868 5.17706 16.3554 5.06906 16.3215 4.96197C16.3099 4.92658 16.302 4.89028 16.2901 4.85519ZM3.28068 3.30445C4.96566 1.61946 7.20315 0.652955 9.41898 0.652955C11.2629 0.652955 12.9519 1.32658 14.175 2.54967C14.3461 2.72082 14.5051 2.8999 14.6527 3.0857L14.732 3.19065C14.7381 3.19858 14.7439 3.20682 14.75 3.21475C14.8846 3.39323 15.0084 3.57719 15.1222 3.76634C15.1247 3.77062 15.1271 3.77489 15.1296 3.77916C15.2412 3.96587 15.3428 4.15777 15.4343 4.35363C15.4386 4.36248 15.4423 4.37194 15.4462 4.38079C15.5329 4.56811 15.6101 4.7594 15.6784 4.95374C15.6842 4.97082 15.6903 4.9876 15.6961 5.00468C15.7556 5.17858 15.8056 5.35553 15.8508 5.53401C15.8612 5.5755 15.8731 5.61638 15.8828 5.65818C15.9222 5.82628 15.9527 5.99651 15.9795 6.16767C15.9887 6.22685 15.9987 6.28574 16.0064 6.34553C16.0277 6.50845 16.0424 6.67258 16.0524 6.83763C16.0567 6.90506 16.0604 6.97279 16.0628 7.04082C16.0686 7.20404 16.0689 7.36818 16.064 7.53262C16.0619 7.60004 16.0585 7.66716 16.0549 7.73458C16.0454 7.90329 16.0317 8.07262 16.0113 8.24194C16.0042 8.30113 15.9948 8.36031 15.9865 8.4195C15.9609 8.59889 15.9313 8.77797 15.8932 8.95675C15.8843 8.99885 15.8731 9.04065 15.8636 9.08245C15.8224 9.26245 15.7763 9.44184 15.7226 9.62062C15.7147 9.64746 15.7074 9.67462 15.6992 9.70146C15.6378 9.89916 15.568 10.0953 15.4917 10.2903C15.4804 10.3196 15.47 10.3489 15.4581 10.3778C15.3794 10.5731 15.2925 10.7662 15.1988 10.9575C15.1842 10.9874 15.1701 11.0173 15.1552 11.0469C15.0594 11.2376 14.9557 11.4258 14.8452 11.6119C14.8284 11.6403 14.8114 11.6683 14.7943 11.6964C14.6805 11.8828 14.56 12.0665 14.4315 12.2468C14.4138 12.2715 14.3955 12.2959 14.3775 12.3206C14.2445 12.5034 14.1051 12.6831 13.9571 12.8582C13.9425 12.8756 13.9269 12.8923 13.912 12.9097C13.7558 13.0919 13.5928 13.2703 13.4202 13.443C13.3149 13.5483 13.2075 13.6508 13.098 13.7505C11.4563 15.2442 9.36132 16.0933 7.28522 16.0933C7.21963 16.0933 7.15556 16.0878 7.09027 16.086C6.94932 16.0823 6.80868 16.078 6.66987 16.0668C6.58139 16.0594 6.49475 16.0472 6.40749 16.0369C6.28515 16.0222 6.16312 16.0067 6.04261 15.9859C5.95993 15.9719 5.87817 15.9551 5.79671 15.938C5.67041 15.9115 5.54563 15.8819 5.42176 15.8486C5.34946 15.8294 5.27746 15.8102 5.20607 15.7885C5.06817 15.7467 4.93302 15.6991 4.79909 15.6488C4.74417 15.6283 4.68834 15.61 4.63434 15.5881C4.44915 15.513 4.26763 15.431 4.09129 15.3397C4.05956 15.3233 4.02966 15.3034 3.99824 15.2867C3.8579 15.211 3.72 15.1314 3.58576 15.0456C3.51132 14.9977 3.43963 14.9456 3.36702 14.8946C3.06895 14.6859 2.78492 14.4571 2.5259 14.1981C-0.269592 11.4032 0.069052 6.51607 3.28068 3.30445ZM4.99526 16.3615C5.07824 16.3871 5.16214 16.4109 5.24634 16.4338C5.37814 16.4695 5.51115 16.5009 5.6457 16.5293C5.67834 16.5363 5.71007 16.546 5.74271 16.5524L6.16434 16.9741C5.69481 16.8041 5.24939 16.5845 4.83631 16.3157C4.88817 16.3331 4.94248 16.3453 4.99526 16.3615ZM7.33251 17.2798L6.73546 16.6827C6.84407 16.69 6.9539 16.6925 7.06373 16.6955C7.13695 16.6974 7.20834 16.7056 7.28187 16.7056C7.52715 16.7056 7.77244 16.6919 8.01743 16.6702L8.73285 17.3856C8.68037 17.3865 8.6282 17.3896 8.57604 17.3896C8.15166 17.3896 7.73675 17.3496 7.33251 17.2798Z" fill="#1A56A5"/>
<path d="M3.78398 11.7123L5.61876 11.2645C5.63188 11.2614 5.64225 11.2477 5.64561 11.2294L5.70937 10.8831C5.05496 10.359 4.68215 9.63105 4.59917 8.71518C4.26693 8.47386 4.10859 8.062 4.19981 7.63854L4.28401 7.24803C4.35601 6.91457 4.58391 6.61895 4.89296 6.4481C5.02079 6.07773 5.18523 5.73542 5.38293 5.42942C5.46896 5.2961 5.53883 5.19695 5.59588 5.11671C5.76795 4.87325 5.76795 4.87325 5.76276 4.49159C5.76062 4.33813 5.76581 4.18162 5.77771 4.02634C5.79388 3.82132 5.97022 3.66115 6.17951 3.66115C6.30367 3.66115 6.41869 3.72125 6.48703 3.82223C6.52761 3.88203 6.61425 3.97905 6.79639 4.1023C7.1332 4.3299 7.64788 4.43149 8.23181 4.39274C8.3212 4.38664 8.41334 4.38359 8.507 4.38359C11.3394 4.38634 12.0878 5.75434 12.1933 6.97162C12.6034 7.24376 12.8273 7.66691 12.7849 8.11081L12.7361 8.62152C12.6845 9.16305 12.2483 9.60145 11.6515 9.73325C11.153 10.747 10.3564 11.4042 9.33164 11.6483L9.27795 12.033C9.27307 12.0672 9.2932 12.1239 9.34873 12.1666L11.765 14.0313C12.1973 13.7326 12.6079 13.3924 12.9884 13.012C14.4205 11.5799 15.2909 9.75186 15.4394 7.864C15.5892 5.95844 14.987 4.22403 13.7435 2.98081C12.6357 1.87335 11.0999 1.26318 9.4192 1.26318C7.36415 1.26318 5.28408 2.16471 3.71259 3.7362C2.28022 5.16827 1.40981 6.99634 1.26154 8.8842C1.11174 10.7898 1.47845 11.8753 2.72229 13.1188C2.86537 12.4729 3.20707 11.8814 3.78398 11.7123Z" fill="#1A56A5"/>
</svg>
