<svg xmlns="http://www.w3.org/2000/svg" version="1.1" xmlns:xlink="http://www.w3.org/1999/xlink" xmlns:svgjs="http://svgjs.dev/svgjs" width="200" height="388" preserveAspectRatio="none" viewBox="0 0 200 388"><g mask="url(&quot;#SvgjsMask1021&quot;)" fill="none"><rect width="200" height="388" x="0" y="0" fill="rgba(249, 249, 249, 1)"></rect><path d="M6.59 -70.35L71.54 -32.85L71.54 42.15L6.59 79.65L-58.36 42.15L-58.36 -32.85zM6.59 154.65L71.54 192.15L71.54 267.15L6.59 304.65L-58.36 267.15L-58.36 192.15zM201.45 42.15L266.4 79.65L266.4 154.65L201.45 192.15L136.5 154.65L136.5 79.65z" stroke="rgba(238, 240, 243, 1)" stroke-width="2"></path><path d="M-0.91 -70.35 a7.5 7.5 0 1 0 15 0 a7.5 7.5 0 1 0 -15 0zM64.04 -32.85 a7.5 7.5 0 1 0 15 0 a7.5 7.5 0 1 0 -15 0zM64.04 42.15 a7.5 7.5 0 1 0 15 0 a7.5 7.5 0 1 0 -15 0zM-0.91 79.65 a7.5 7.5 0 1 0 15 0 a7.5 7.5 0 1 0 -15 0zM-65.86 42.15 a7.5 7.5 0 1 0 15 0 a7.5 7.5 0 1 0 -15 0zM-65.86 -32.85 a7.5 7.5 0 1 0 15 0 a7.5 7.5 0 1 0 -15 0zM-0.91 154.65 a7.5 7.5 0 1 0 15 0 a7.5 7.5 0 1 0 -15 0zM64.04 192.15 a7.5 7.5 0 1 0 15 0 a7.5 7.5 0 1 0 -15 0zM64.04 267.15 a7.5 7.5 0 1 0 15 0 a7.5 7.5 0 1 0 -15 0zM-0.91 304.65 a7.5 7.5 0 1 0 15 0 a7.5 7.5 0 1 0 -15 0zM-65.86 267.15 a7.5 7.5 0 1 0 15 0 a7.5 7.5 0 1 0 -15 0zM-65.86 192.15 a7.5 7.5 0 1 0 15 0 a7.5 7.5 0 1 0 -15 0zM193.95 42.15 a7.5 7.5 0 1 0 15 0 a7.5 7.5 0 1 0 -15 0zM258.9 79.65 a7.5 7.5 0 1 0 15 0 a7.5 7.5 0 1 0 -15 0zM258.9 154.65 a7.5 7.5 0 1 0 15 0 a7.5 7.5 0 1 0 -15 0zM193.95 192.15 a7.5 7.5 0 1 0 15 0 a7.5 7.5 0 1 0 -15 0zM129 154.65 a7.5 7.5 0 1 0 15 0 a7.5 7.5 0 1 0 -15 0zM129 79.65 a7.5 7.5 0 1 0 15 0 a7.5 7.5 0 1 0 -15 0z" fill="rgba(238, 240, 243, 1)"></path><path d="M11.63 -13.8L54.93 11.2L54.93 61.2L11.63 86.2L-31.67 61.2L-31.67 11.2zM141.54 211.2L184.84 236.2L184.84 286.2L141.54 311.2L98.23 286.2L98.23 236.2zM184.84 286.2L228.14 311.2L228.14 361.2L184.84 386.2L141.54 361.2L141.54 311.2z" stroke="rgba(235, 235, 235, 1)" stroke-width="2"></path></g><defs><mask id="SvgjsMask1021"><rect width="200" height="388" fill="#ffffff"></rect></mask></defs></svg>